<svg id="Group_1896" data-name="Group 1896" xmlns="http://www.w3.org/2000/svg" xmlns:xlink="http://www.w3.org/1999/xlink" width="1920" height="1080" viewBox="0 0 1920 1080">
  <defs>
    <clipPath id="clip-path">
      <rect id="Rectangle_1083" data-name="Rectangle 1083" width="1080" height="1080" fill="none"/>
    </clipPath>
  </defs>
  <rect id="Rectangle_11" data-name="Rectangle 11" width="1920" height="1080" fill="#f8f3f6"/>
  <g id="OBJECTS" transform="translate(615.479 179.154)">
    <g id="Group_1891" data-name="Group 1891" transform="translate(107.576 0)">
      <ellipse id="Ellipse_212" data-name="Ellipse 212" cx="217.945" cy="12.994" rx="217.945" ry="12.994" transform="translate(0 452.983)" fill="#f8f3f6" opacity="0.62" style="mix-blend-mode: multiply;isolation: isolate"/>
      <g id="Group_1886" data-name="Group 1886" transform="translate(5.351 91.476)">
        <g id="Group_1883" data-name="Group 1883">
          <path id="Path_1836" data-name="Path 1836" d="M151.578,230.414v44.6a7.769,7.769,0,0,0,7.752,7.75H569.011a7.766,7.766,0,0,0,7.752-7.75v-44.6Z" transform="translate(-151.576 23.649)" fill="#f0f0f0"/>
          <path id="Path_1837" data-name="Path 1837" d="M576.764,120.544a7.771,7.771,0,0,0-7.752-7.752H159.331a7.774,7.774,0,0,0-7.754,7.752V366.856H576.764Z" transform="translate(-151.577 -112.792)" fill="#534b62"/>
          <rect id="Rectangle_1079" data-name="Rectangle 1079" width="146.245" height="44.898" transform="translate(140.371 306.408)" fill="#d6d6d6"/>
          <rect id="Rectangle_1080" data-name="Rectangle 1080" width="214.526" height="21.02" transform="translate(105.227 351.31)" fill="#f0f0f0"/>
          <rect id="Rectangle_1081" data-name="Rectangle 1081" width="146.245" height="16.227" transform="translate(140.371 306.408)" fill="#bdbdbd"/>
          <rect id="Rectangle_1082" data-name="Rectangle 1082" width="381.308" height="209.225" transform="translate(21.982 22.117)" fill="#5ab3b1"/>
        </g>
        <g id="Group_1884" data-name="Group 1884" transform="translate(108.498 63.157)">
          <path id="Path_1838" data-name="Path 1838" d="M265.49,142.031l-26.534,26.536-26.534-26.536-10.614,10.614,26.534,26.536-26.534,26.532,10.614,10.614L238.956,189.8l26.534,26.532L276.1,205.713,249.57,179.182,276.1,152.646Z" transform="translate(-201.808 -142.031)" fill="#534b62"/>
          <path id="Path_1839" data-name="Path 1839" d="M338.092,152.646l-10.614-10.614-26.534,26.536L274.41,142.031,263.8,152.646l26.534,26.536L263.8,205.713l10.614,10.614L300.944,189.8l26.534,26.532,10.614-10.614-26.534-26.532Z" transform="translate(-129.901 -142.031)" fill="#534b62"/>
        </g>
        <g id="Group_1885" data-name="Group 1885" transform="translate(148.474 172.047)">
          <path id="Path_1840" data-name="Path 1840" d="M341.275,222.672c-56.149-38.772-113.026-.393-113.6,0l-7.363-10.666c.639-.443,64.9-43.794,128.323,0Z" transform="translate(-220.315 -192.443)" fill="#534b62"/>
        </g>
      </g>
      <g id="Group_1890" data-name="Group 1890" transform="translate(365.44)">
        <path id="Path_1841" data-name="Path 1841" d="M519.165,70.442H326.925a8.64,8.64,0,0,0-8.64,8.64V203.234a8.64,8.64,0,0,0,8.64,8.64h22.259l-21.9,41.52,73.915-41.52H519.165a8.64,8.64,0,0,0,8.64-8.64V79.082A8.64,8.64,0,0,0,519.165,70.442Z" transform="translate(-318.285 -70.442)" fill="#fff"/>
        <g id="Group_1889" data-name="Group 1889" transform="translate(31.355 24.319)">
          <g id="Group_1887" data-name="Group 1887">
            <path id="Path_1842" data-name="Path 1842" d="M361.168,136.609a2.132,2.132,0,0,1-2.106-2.1v-9.428H334.9a2.128,2.128,0,0,1-2.1-2.1v-5.534a3.553,3.553,0,0,1,.505-1.907q.505-.82,1.207-1.754l23.849-29.767a4.248,4.248,0,0,1,3.193-1.948h5.923a2.128,2.128,0,0,1,2.106,2.1v31.171h6.7a2.132,2.132,0,0,1,2.1,2.1v5.534a2.128,2.128,0,0,1-2.1,2.1h-6.7v9.428a2.132,2.132,0,0,1-2.106,2.1Zm-2.106-21.274V98.658l-13.327,16.677Z" transform="translate(-332.801 -81.281)" fill="#414042"/>
            <path id="Path_1843" data-name="Path 1843" d="M399.122,102.821c.056.985.08,2.076.08,3.272v7.325c0,1.2-.024,2.285-.08,3.272a36.493,36.493,0,0,1-1.363,8.376,17.727,17.727,0,0,1-3.586,6.7,16.386,16.386,0,0,1-6.387,4.443,29.889,29.889,0,0,1-19.287,0,16.393,16.393,0,0,1-6.35-4.443,17.7,17.7,0,0,1-3.586-6.7,36.263,36.263,0,0,1-1.363-8.376q-.159-2.961-.155-6.741t.155-6.741a37.459,37.459,0,0,1,1.363-8.454,18.009,18.009,0,0,1,3.586-6.817,16.93,16.93,0,0,1,6.35-4.56,24.506,24.506,0,0,1,9.664-1.676,25.645,25.645,0,0,1,9.623,1.6,16.385,16.385,0,0,1,6.387,4.443,17.734,17.734,0,0,1,3.586,6.7A36.532,36.532,0,0,1,399.122,102.821Zm-31.4,13.481q.392,5.608,2.691,8.688t7.754,3.08q5.45,0,7.75-3.08T388.6,116.3q.152-2.958.156-6.545t-.156-6.549q-.392-5.605-2.691-8.685t-7.75-3.08q-5.459,0-7.754,3.08t-2.691,8.685q-.159,2.965-.156,6.549T367.718,116.3Z" transform="translate(-304.678 -81.701)" fill="#414042"/>
            <path id="Path_1844" data-name="Path 1844" d="M408.031,136.609a2.132,2.132,0,0,1-2.106-2.1v-9.428H381.77a2.128,2.128,0,0,1-2.106-2.1v-5.534a3.553,3.553,0,0,1,.505-1.907q.509-.82,1.212-1.754l23.844-29.767a4.258,4.258,0,0,1,3.195-1.948h5.923a2.128,2.128,0,0,1,2.1,2.1v31.171h6.7a2.124,2.124,0,0,1,2.1,2.1v5.534a2.121,2.121,0,0,1-2.1,2.1h-6.7v9.428a2.132,2.132,0,0,1-2.1,2.1Zm-2.106-21.274V98.658L392.6,115.336Z" transform="translate(-278.44 -81.281)" fill="#414042"/>
          </g>
          <g id="Group_1888" data-name="Group 1888" transform="translate(19.423 68.731)">
            <path id="Path_1845" data-name="Path 1845" d="M354.939,132.269a.786.786,0,0,1,.577.246.772.772,0,0,1,.246.577v1.1a.784.784,0,0,1-.246.581.792.792,0,0,1-.577.244H342.616a.826.826,0,0,1-.823-.825v-19.7a.822.822,0,0,1,.823-.825h12.079a.83.83,0,0,1,.821.825v1.1a.838.838,0,0,1-.821.823H344.687v6.437h9.336a.83.83,0,0,1,.823.823v1.1a.838.838,0,0,1-.823.825h-9.336v6.679Z" transform="translate(-341.793 -113.356)" fill="#414042"/>
            <path id="Path_1846" data-name="Path 1846" d="M359.766,113.663a10.54,10.54,0,0,1,2.823.365,6.8,6.8,0,0,1,2.333,1.13,5.463,5.463,0,0,1,1.6,1.953,6.334,6.334,0,0,1,.6,2.866,5.908,5.908,0,0,1-1.238,3.936,6.69,6.69,0,0,1-3.156,2.074l4.6,8.022a.716.716,0,0,1,.093.335.646.646,0,0,1-.2.473.633.633,0,0,1-.471.2H365.44a1.185,1.185,0,0,1-.9-.307,2.9,2.9,0,0,1-.413-.518l-4.422-7.778h-5.249v7.778a.826.826,0,0,1-.823.825h-1.248a.83.83,0,0,1-.823-.825v-19.7a.826.826,0,0,1,.823-.825Zm-5.307,10.005h5.156a5.752,5.752,0,0,0,3.4-.868,3.24,3.24,0,0,0,1.207-2.823,3.069,3.069,0,0,0-1.207-2.758,6.053,6.053,0,0,0-3.4-.81h-5.156Z" transform="translate(-330.459 -113.356)" fill="#414042"/>
            <path id="Path_1847" data-name="Path 1847" d="M370.372,113.663a10.525,10.525,0,0,1,2.821.365,6.76,6.76,0,0,1,2.333,1.13,5.493,5.493,0,0,1,1.6,1.953,6.365,6.365,0,0,1,.594,2.866,5.907,5.907,0,0,1-1.235,3.936,6.69,6.69,0,0,1-3.156,2.074l4.6,8.022a.743.743,0,0,1,.093.335.655.655,0,0,1-.2.473.642.642,0,0,1-.473.2h-1.311a1.182,1.182,0,0,1-.9-.307,2.923,2.923,0,0,1-.415-.518l-4.422-7.778h-5.247v7.778a.83.83,0,0,1-.823.825h-1.248a.826.826,0,0,1-.823-.825v-19.7a.822.822,0,0,1,.823-.825Zm-5.307,10.005h5.154a5.759,5.759,0,0,0,3.4-.868,3.239,3.239,0,0,0,1.205-2.823,3.068,3.068,0,0,0-1.205-2.758,6.061,6.061,0,0,0-3.4-.81h-5.154Z" transform="translate(-318.156 -113.356)" fill="#414042"/>
            <path id="Path_1848" data-name="Path 1848" d="M372.43,121.789a9.637,9.637,0,0,1,.6-3.218,7.5,7.5,0,0,1,1.631-2.622,7.772,7.772,0,0,1,2.624-1.771,10.018,10.018,0,0,1,7.134,0,7.752,7.752,0,0,1,2.624,1.771,7.537,7.537,0,0,1,1.633,2.622,9.638,9.638,0,0,1,.594,3.218q.094,2.712,0,5.428a10.166,10.166,0,0,1-.624,3.218,7.732,7.732,0,0,1-1.633,2.64,7.534,7.534,0,0,1-2.607,1.769,10.167,10.167,0,0,1-7.109,0,7.554,7.554,0,0,1-2.607-1.769,7.732,7.732,0,0,1-1.633-2.64,10.226,10.226,0,0,1-.624-3.218Q372.342,124.5,372.43,121.789Zm13.938.153a7.883,7.883,0,0,0-.471-2.5,4.639,4.639,0,0,0-2.866-2.823,6.969,6.969,0,0,0-4.361,0,4.793,4.793,0,0,0-1.726,1.052,4.973,4.973,0,0,0-1.16,1.771,7.185,7.185,0,0,0-.456,2.5q-.065,1.371-.063,2.56t.063,2.562a7.185,7.185,0,0,0,.456,2.5,4.954,4.954,0,0,0,1.16,1.771,4.763,4.763,0,0,0,1.726,1.052,6.969,6.969,0,0,0,4.361,0,4.639,4.639,0,0,0,2.866-2.823,7.883,7.883,0,0,0,.471-2.5q.065-1.371.065-2.562T386.368,121.943Z" transform="translate(-306.305 -113.521)" fill="#414042"/>
            <path id="Path_1849" data-name="Path 1849" d="M391.878,113.663a10.535,10.535,0,0,1,2.821.365,6.779,6.779,0,0,1,2.333,1.13,5.491,5.491,0,0,1,1.6,1.953,6.363,6.363,0,0,1,.594,2.866,5.919,5.919,0,0,1-1.236,3.936,6.7,6.7,0,0,1-3.156,2.074l4.6,8.022a.743.743,0,0,1,.093.335.655.655,0,0,1-.2.473.642.642,0,0,1-.473.2h-1.311a1.179,1.179,0,0,1-.9-.307,2.925,2.925,0,0,1-.415-.518l-4.422-7.778H386.57v7.778a.83.83,0,0,1-.823.825H384.5a.826.826,0,0,1-.823-.825v-19.7a.822.822,0,0,1,.823-.825Zm-5.307,10.005h5.154a5.763,5.763,0,0,0,3.4-.868,3.239,3.239,0,0,0,1.205-2.823,3.068,3.068,0,0,0-1.205-2.758,6.065,6.065,0,0,0-3.4-.81H386.57Z" transform="translate(-293.209 -113.356)" fill="#414042"/>
          </g>
        </g>
      </g>
    </g>
    <text id="The_link_you_followed_probably_broken_or_the_page_has_been_removed." data-name="The link you followed probably broken
or the page has been removed." transform="translate(317.291 642.327)" font-size="23" font-family="Muli-Regular, Muli" letter-spacing="0.08em" opacity="0.4"><tspan x="-234.278" y="0">The link you followed probably broken</tspan><tspan x="-189.761" y="28">or the page has been removed.</tspan></text>
    <text id="SORRY_THE_PAGE_NOT_FOUND" data-name="SORRY, THE PAGE NOT FOUND" transform="translate(324 579.358)" fill="#414042" font-size="38" font-family="Muli-Regular, Muli" letter-spacing="0.08em"><tspan x="-317.243" y="0">SORRY, THE PAGE NOT FOUND</tspan></text>
    <g id="Group_1892" data-name="Group 1892" transform="translate(201.496 700.918)">
      <path id="Path_1850" data-name="Path 1850" d="M192.581,412.48V395.555l10.578,8.456Z" transform="translate(-192.581 -394.229)" fill="#534b62"/>
      <text id="Return_to_Homepage" data-name="Return to Homepage" transform="translate(23.066 16)" fill="#534b62" font-size="21" font-family="Helvetica" letter-spacing="0.05em"><tspan x="0" y="0">Return to Homepage</tspan></text>
    </g>
  </g>
</svg>
